<svg width="275" height="80" viewBox="0 0 275 80" fill="none" xmlns="http://www.w3.org/2000/svg">
<path d="M264.815 80H10.1852C4.58588 80 0 75.4975 0 70V10C0 4.5025 4.58588 4.76837e-06 10.1852 4.76837e-06H264.815C270.414 4.76837e-06 275 4.5025 275 10V70C275 75.4975 270.414 80 264.815 80Z" fill="black"/>
<path d="M61.3143 38.134C61.2552 31.688 66.69 28.552 66.9385 28.406C63.8606 24 59.0898 23.398 57.4133 23.35C53.4065 22.936 49.5198 25.704 47.4787 25.704C45.3969 25.704 42.2537 23.39 38.8661 23.458C34.5069 23.524 30.4287 26.002 28.192 29.85C23.5761 37.696 27.0187 49.226 31.4411 55.568C33.6533 58.674 36.2383 62.142 39.6219 62.02C42.932 61.886 44.1685 59.948 48.1632 59.948C52.1211 59.948 53.2822 62.02 56.733 61.942C60.2856 61.886 62.5222 58.822 64.6571 55.688C67.2135 52.128 68.2402 48.622 68.2809 48.442C68.1974 48.414 61.3815 45.86 61.3143 38.134Z" fill="white"/>
<path d="M54.7958 19.178C56.5761 16.992 57.7943 14.018 57.4561 11C54.8793 11.112 51.6567 12.75 49.8009 14.888C48.1591 16.772 46.6924 19.86 47.0713 22.764C49.9659 22.976 52.938 21.33 54.7958 19.178Z" fill="white"/>
<path d="M99.8592 18.5839C99.8592 20.9379 99.1401 22.7099 97.704 23.8999C96.3738 24.9979 94.4834 25.5479 92.0349 25.5479C90.8208 25.5479 89.7819 25.4959 88.9121 25.3919V12.5299C90.0467 12.3499 91.269 12.2579 92.589 12.2579C94.9214 12.2579 96.6793 12.7559 97.8649 13.7519C99.193 14.8779 99.8592 16.4879 99.8592 18.5839ZM97.6082 18.6419C97.6082 17.1159 97.1967 15.9459 96.3738 15.1299C95.5508 14.3159 94.349 13.9079 92.7662 13.9079C92.094 13.9079 91.5216 13.9519 91.0469 14.0439V23.8219C91.3097 23.8619 91.7904 23.8799 92.4891 23.8799C94.1229 23.8799 95.3838 23.4339 96.2719 22.5419C97.1601 21.6499 97.6082 20.3499 97.6082 18.6419Z" fill="white"/>
<path d="M111.794 20.64C111.794 22.09 111.373 23.278 110.529 24.21C109.645 25.168 108.474 25.646 107.011 25.646C105.602 25.646 104.479 25.188 103.642 24.268C102.807 23.35 102.389 22.192 102.389 20.796C102.389 19.336 102.819 18.138 103.683 17.208C104.546 16.278 105.707 15.812 107.17 15.812C108.58 15.812 109.712 16.27 110.57 17.188C111.385 18.08 111.794 19.232 111.794 20.64ZM109.58 20.708C109.58 19.838 109.388 19.092 109.008 18.47C108.559 17.718 107.922 17.342 107.093 17.342C106.235 17.342 105.583 17.718 105.135 18.47C104.752 19.092 104.563 19.85 104.563 20.746C104.563 21.616 104.754 22.362 105.135 22.984C105.597 23.736 106.241 24.112 107.072 24.112C107.887 24.112 108.527 23.73 108.987 22.964C109.382 22.33 109.58 21.578 109.58 20.708Z" fill="white"/>
<path d="M127.797 16.004L124.793 25.432H122.837L121.592 21.338C121.277 20.316 121.02 19.3 120.82 18.292H120.782C120.596 19.328 120.34 20.342 120.01 21.338L118.688 25.432H116.71L113.884 16.004H116.078L117.164 20.486C117.427 21.546 117.643 22.556 117.816 23.512H117.854C118.013 22.724 118.276 21.72 118.647 20.506L120.01 16.006H121.749L123.055 20.41C123.371 21.484 123.627 22.518 123.825 23.514H123.884C124.029 22.544 124.247 21.51 124.536 20.41L125.701 16.006H127.797V16.004Z" fill="white"/>
<path d="M138.864 25.432H136.729V20.032C136.729 18.368 136.086 17.536 134.794 17.536C134.161 17.536 133.649 17.764 133.252 18.222C132.859 18.68 132.659 19.22 132.659 19.838V25.43H130.525V18.698C130.525 17.87 130.498 16.972 130.447 16H132.323L132.423 17.474H132.482C132.731 17.016 133.102 16.638 133.588 16.336C134.167 15.984 134.815 15.806 135.524 15.806C136.42 15.806 137.165 16.09 137.758 16.66C138.496 17.358 138.864 18.4 138.864 19.784V25.432V25.432Z" fill="white"/>
<path d="M144.751 25.432H142.619V11.678H144.751V25.432Z" fill="white"/>
<path d="M157.32 20.64C157.32 22.09 156.898 23.278 156.055 24.21C155.171 25.168 153.998 25.646 152.537 25.646C151.125 25.646 150.003 25.188 149.168 24.268C148.333 23.35 147.915 22.192 147.915 20.796C147.915 19.336 148.345 18.138 149.209 17.208C150.072 16.278 151.233 15.812 152.694 15.812C154.106 15.812 155.236 16.27 156.096 17.188C156.911 18.08 157.32 19.232 157.32 20.64ZM155.104 20.708C155.104 19.838 154.912 19.092 154.531 18.47C154.085 17.718 153.446 17.342 152.619 17.342C151.759 17.342 151.107 17.718 150.661 18.47C150.278 19.092 150.089 19.85 150.089 20.746C150.089 21.616 150.28 22.362 150.661 22.984C151.123 23.736 151.767 24.112 152.598 24.112C153.413 24.112 154.051 23.73 154.511 22.964C154.908 22.33 155.104 21.578 155.104 20.708Z" fill="white"/>
<path d="M167.652 25.432H165.735L165.576 24.346H165.517C164.861 25.212 163.926 25.646 162.712 25.646C161.806 25.646 161.072 25.36 160.52 24.792C160.019 24.276 159.769 23.634 159.769 22.872C159.769 21.72 160.257 20.842 161.241 20.234C162.223 19.626 163.604 19.328 165.383 19.342V19.166C165.383 17.924 164.719 17.304 163.388 17.304C162.441 17.304 161.606 17.538 160.885 18.002L160.451 16.626C161.343 16.084 162.445 15.812 163.745 15.812C166.254 15.812 167.513 17.112 167.513 19.712V23.184C167.513 24.126 167.56 24.876 167.652 25.432ZM165.436 22.192V20.738C163.081 20.698 161.903 21.332 161.903 22.638C161.903 23.13 162.038 23.498 162.313 23.744C162.588 23.99 162.938 24.112 163.356 24.112C163.824 24.112 164.262 23.966 164.662 23.676C165.063 23.384 165.309 23.014 165.401 22.56C165.423 22.458 165.436 22.334 165.436 22.192Z" fill="white"/>
<path d="M179.782 25.432H177.888L177.788 23.918H177.729C177.124 25.07 176.093 25.646 174.645 25.646C173.488 25.646 172.524 25.2 171.761 24.308C170.997 23.416 170.616 22.258 170.616 20.836C170.616 19.31 171.029 18.074 171.86 17.13C172.665 16.25 173.651 15.81 174.824 15.81C176.114 15.81 177.016 16.236 177.529 17.09H177.57V11.678H179.707V22.892C179.707 23.81 179.731 24.656 179.782 25.432ZM177.57 21.456V19.884C177.57 19.612 177.55 19.392 177.511 19.224C177.391 18.72 177.132 18.296 176.739 17.954C176.342 17.612 175.863 17.44 175.311 17.44C174.515 17.44 173.891 17.75 173.433 18.372C172.979 18.994 172.748 19.788 172.748 20.758C172.748 21.69 172.966 22.446 173.404 23.028C173.867 23.648 174.49 23.958 175.27 23.958C175.971 23.958 176.531 23.7 176.957 23.182C177.368 22.704 177.57 22.128 177.57 21.456Z" fill="white"/>
<path d="M198.04 20.64C198.04 22.09 197.619 23.278 196.775 24.21C195.891 25.168 194.722 25.646 193.257 25.646C191.85 25.646 190.727 25.188 189.888 24.268C189.053 23.35 188.635 22.192 188.635 20.796C188.635 19.336 189.065 18.138 189.929 17.208C190.792 16.278 191.954 15.812 193.418 15.812C194.826 15.812 195.96 16.27 196.816 17.188C197.631 18.08 198.04 19.232 198.04 20.64ZM195.828 20.708C195.828 19.838 195.637 19.092 195.256 18.47C194.805 17.718 194.17 17.342 193.339 17.342C192.483 17.342 191.831 17.718 191.381 18.47C190.998 19.092 190.809 19.85 190.809 20.746C190.809 21.616 191 22.362 191.381 22.984C191.844 23.736 192.487 24.112 193.318 24.112C194.133 24.112 194.775 23.73 195.235 22.964C195.628 22.33 195.828 21.578 195.828 20.708Z" fill="white"/>
<path d="M209.519 25.432H207.386V20.032C207.386 18.368 206.743 17.536 205.449 17.536C204.815 17.536 204.304 17.764 203.909 18.222C203.514 18.68 203.316 19.22 203.316 19.838V25.43H201.179V18.698C201.179 17.87 201.155 16.972 201.104 16H202.978L203.078 17.474H203.137C203.388 17.016 203.758 16.638 204.243 16.336C204.824 15.984 205.469 15.806 206.18 15.806C207.075 15.806 207.82 16.09 208.413 16.66C209.152 17.358 209.519 18.4 209.519 19.784V25.432V25.432Z" fill="white"/>
<path d="M223.886 17.574H221.536V22.154C221.536 23.318 221.953 23.9 222.78 23.9C223.163 23.9 223.481 23.868 223.732 23.802L223.787 25.392C223.365 25.548 222.811 25.626 222.128 25.626C221.285 25.626 220.629 25.374 220.155 24.87C219.678 24.366 219.442 23.518 219.442 22.328V17.574H218.038V16.004H219.442V14.276L221.534 13.656V16.002H223.884V17.574H223.886Z" fill="white"/>
<path d="M235.188 25.432H233.051V20.072C233.051 18.382 232.407 17.536 231.118 17.536C230.128 17.536 229.451 18.026 229.081 19.006C229.018 19.212 228.981 19.464 228.981 19.76V25.43H226.848V11.678H228.981V17.36H229.022C229.694 16.326 230.657 15.81 231.906 15.81C232.79 15.81 233.521 16.094 234.102 16.664C234.825 17.374 235.188 18.43 235.188 19.826V25.432V25.432Z" fill="white"/>
<path d="M246.846 20.2719C246.846 20.6479 246.817 20.9639 246.766 21.2219H240.364C240.392 22.1539 240.698 22.8639 241.291 23.3559C241.833 23.7959 242.531 24.0159 243.387 24.0159C244.334 24.0159 245.198 23.8679 245.976 23.5699L246.31 25.0259C245.4 25.4139 244.328 25.6079 243.087 25.6079C241.6 25.6079 240.429 25.1779 239.582 24.3179C238.73 23.4579 238.309 22.3039 238.309 20.8559C238.309 19.4339 238.702 18.2499 239.494 17.3059C240.321 16.2979 241.44 15.7939 242.851 15.7939C244.232 15.7939 245.281 16.2979 245.99 17.3059C246.563 18.1059 246.846 19.0959 246.846 20.2719ZM244.809 19.7299C244.825 19.1079 244.685 18.5719 244.395 18.1199C244.025 17.5379 243.46 17.2459 242.696 17.2459C242 17.2459 241.431 17.5299 240.997 18.0999C240.643 18.5539 240.433 19.0959 240.364 19.7299H244.809Z" fill="white"/>
<path d="M109.219 61.5739H104.593L102.059 53.7559H93.2508L90.8369 61.5739H86.333L95.0597 34.9579H100.45L109.219 61.5739ZM101.295 50.4759L99.0034 43.5259C98.761 42.8159 98.3067 41.1439 97.6365 38.5119H97.555C97.2882 39.6439 96.8584 41.3159 96.2676 43.5259L94.0167 50.4759H101.295V50.4759Z" fill="white"/>
<path d="M131.661 51.7419C131.661 55.0059 130.763 57.5859 128.966 59.4799C127.357 61.1659 125.359 62.0079 122.973 62.0079C120.398 62.0079 118.549 61.0999 117.422 59.2839H117.341V69.3939H112.998V48.6999C112.998 46.6479 112.943 44.5419 112.837 42.3819H116.656L116.899 45.4239H116.98C118.429 43.1319 120.627 41.9879 123.576 41.9879C125.882 41.9879 127.807 42.8819 129.347 44.6719C130.891 46.4639 131.661 48.8199 131.661 51.7419ZM127.237 51.8979C127.237 50.0299 126.809 48.4899 125.949 47.2779C125.01 46.0139 123.749 45.3819 122.169 45.3819C121.097 45.3819 120.123 45.7339 119.254 46.4279C118.382 47.1279 117.811 48.0419 117.545 49.1739C117.41 49.7019 117.343 50.1339 117.343 50.4739V53.6739C117.343 55.0699 117.779 56.2479 118.651 57.2099C119.522 58.1719 120.655 58.6519 122.048 58.6519C123.684 58.6519 124.957 58.0319 125.868 56.7959C126.78 55.5579 127.237 53.9259 127.237 51.8979Z" fill="white"/>
<path d="M154.144 51.7419C154.144 55.0059 153.246 57.5859 151.447 59.4799C149.84 61.1659 147.841 62.0079 145.456 62.0079C142.881 62.0079 141.032 61.0999 139.907 59.2839H139.826V69.3939H135.483V48.6999C135.483 46.6479 135.428 44.5419 135.322 42.3819H139.141L139.384 45.4239H139.465C140.911 43.1319 143.109 41.9879 146.061 41.9879C148.365 41.9879 150.29 42.8819 151.834 44.6719C153.372 46.4639 154.144 48.8199 154.144 51.7419ZM149.72 51.8979C149.72 50.0299 149.29 48.4899 148.43 47.2779C147.491 46.0139 146.234 45.3819 144.651 45.3819C143.578 45.3819 142.606 45.7339 141.734 46.4279C140.863 47.1279 140.294 48.0419 140.027 49.1739C139.895 49.7019 139.826 50.1339 139.826 50.4739V53.6739C139.826 55.0699 140.262 56.2479 141.129 57.2099C142.001 58.1699 143.134 58.6519 144.531 58.6519C146.167 58.6519 147.44 58.0319 148.351 56.7959C149.263 55.5579 149.72 53.9259 149.72 51.8979Z" fill="white"/>
<path d="M179.281 54.1099C179.281 56.3739 178.481 58.2159 176.873 59.6379C175.107 61.1919 172.649 61.9679 169.489 61.9679C166.572 61.9679 164.234 61.4159 162.463 60.3099L163.47 56.7559C165.376 57.8879 167.468 58.4559 169.748 58.4559C171.384 58.4559 172.657 58.0919 173.571 57.3679C174.482 56.6439 174.936 55.6719 174.936 54.4599C174.936 53.3799 174.561 52.4699 173.81 51.7319C173.062 50.9939 171.813 50.3079 170.07 49.6739C165.323 47.9359 162.952 45.3899 162.952 42.0419C162.952 39.8539 163.783 38.0599 165.448 36.6639C167.106 35.2659 169.318 34.5679 172.084 34.5679C174.551 34.5679 176.6 34.9899 178.236 35.8319L177.15 39.3079C175.623 38.4919 173.895 38.0839 171.962 38.0839C170.434 38.0839 169.241 38.4539 168.385 39.1899C167.662 39.8479 167.299 40.6499 167.299 41.5999C167.299 42.6519 167.713 43.5219 168.544 44.2059C169.267 44.8379 170.581 45.5219 172.488 46.2599C174.82 47.1819 176.533 48.2599 177.635 49.4959C178.733 50.7279 179.281 52.2699 179.281 54.1099Z" fill="white"/>
<path d="M193.64 45.5819H188.853V54.8999C188.853 57.2699 189.697 58.4539 191.387 58.4539C192.163 58.4539 192.807 58.3879 193.316 58.2559L193.437 61.4939C192.581 61.8079 191.455 61.9659 190.059 61.9659C188.344 61.9659 187.004 61.4519 186.036 60.4259C185.073 59.3979 184.588 57.6739 184.588 55.2519V45.5779H181.736V42.3779H184.588V38.8639L188.853 37.5999V42.3779H193.64V45.5819Z" fill="white"/>
<path d="M215.239 51.8199C215.239 54.7699 214.379 57.1919 212.664 59.0859C210.865 61.0359 208.478 62.0079 205.502 62.0079C202.634 62.0079 200.35 61.0739 198.647 59.2059C196.944 57.3379 196.093 54.9799 196.093 52.1379C196.093 49.1639 196.969 46.7279 198.727 44.8339C200.481 42.9379 202.848 41.9899 205.824 41.9899C208.692 41.9899 211 42.9239 212.741 44.7939C214.408 46.6079 215.239 48.9499 215.239 51.8199ZM210.733 51.9579C210.733 50.1879 210.348 48.6699 209.568 47.4039C208.657 45.8719 207.356 45.1079 205.669 45.1079C203.923 45.1079 202.597 45.8739 201.686 47.4039C200.906 48.6719 200.521 50.2139 200.521 52.0379C200.521 53.8079 200.906 55.3259 201.686 56.5899C202.626 58.1219 203.937 58.8859 205.63 58.8859C207.288 58.8859 208.59 58.1059 209.529 56.5499C210.33 55.2599 210.733 53.7259 210.733 51.9579Z" fill="white"/>
<path d="M229.356 46.1319C228.926 46.0539 228.467 46.0139 227.987 46.0139C226.459 46.0139 225.277 46.5799 224.446 47.7139C223.723 48.7139 223.361 49.9779 223.361 51.5039V61.5739H219.02L219.06 48.4259C219.06 46.2139 219.005 44.1999 218.897 42.3839H222.68L222.839 46.0559H222.959C223.418 44.7939 224.141 43.7779 225.131 43.0159C226.098 42.3299 227.143 41.9879 228.27 41.9879C228.671 41.9879 229.034 42.0159 229.356 42.0659V46.1319Z" fill="white"/>
<path d="M248.779 51.0699C248.779 51.8339 248.728 52.4779 248.62 53.0039H235.591C235.642 54.8999 236.271 56.3499 237.481 57.3499C238.579 58.2439 239.999 58.6919 241.743 58.6919C243.672 58.6919 245.432 58.3899 247.014 57.7839L247.695 60.7439C245.845 61.5359 243.662 61.9299 241.142 61.9299C238.111 61.9299 235.731 61.0539 234 59.3039C232.272 57.5539 231.407 55.2039 231.407 52.2559C231.407 49.3619 232.211 46.9519 233.823 45.0299C235.509 42.9779 237.789 41.9519 240.657 41.9519C243.474 41.9519 245.607 42.9779 247.055 45.0299C248.202 46.6599 248.779 48.6759 248.779 51.0699ZM244.637 49.9639C244.666 48.6999 244.383 47.6079 243.794 46.6859C243.042 45.4999 241.887 44.9079 240.333 44.9079C238.913 44.9079 237.758 45.4859 236.876 46.6459C236.153 47.5679 235.723 48.6739 235.591 49.9619H244.637V49.9639Z" fill="white"/>
</svg>
