<svg width="154" height="154" viewBox="0 0 154 154" fill="none" xmlns="http://www.w3.org/2000/svg">
<path d="M119.778 154H34.2221C25.0816 154 16.4878 150.44 10.0236 143.976C3.55978 137.513 0 128.919 0 119.778V111.222C0 106.496 3.83025 102.666 8.5556 102.666C13.281 102.666 17.1112 106.496 17.1112 111.222V119.778C17.1112 124.348 18.8912 128.645 22.1226 131.877C25.3548 135.108 29.6516 136.889 34.2221 136.889H119.778C124.348 136.889 128.645 135.108 131.877 131.877C135.108 128.644 136.889 124.348 136.889 119.778V111.222C136.889 106.496 140.719 102.666 145.444 102.666C150.169 102.666 154 106.496 154 111.222V119.778C154 128.918 150.44 137.512 143.976 143.976C137.512 150.44 128.918 154 119.778 154ZM76.9998 119.777C75.8163 119.777 74.6896 119.537 73.6645 119.103C72.7081 118.699 71.8095 118.112 71.0231 117.344C71.0228 117.344 71.0228 117.343 71.0225 117.343C71.0169 117.338 71.0112 117.332 71.0055 117.327C71.004 117.325 71.0022 117.323 71.0007 117.322C70.9959 117.318 70.9918 117.313 70.9873 117.309C70.9843 117.306 70.9816 117.303 70.9786 117.3C70.9756 117.297 70.9717 117.293 70.9691 117.291C70.9631 117.285 70.9565 117.278 70.9505 117.272L36.7281 83.0495C33.3871 79.7085 33.3871 74.2912 36.7281 70.9499C40.0691 67.6089 45.4866 67.6086 48.8276 70.9499L68.4445 90.5668V8.5556C68.4442 3.83025 72.2745 0 76.9998 0C81.7252 0 85.5558 3.83025 85.5558 8.5556V90.5665L105.172 70.9499C108.513 67.6089 113.931 67.6089 117.272 70.9499C120.613 74.2909 120.613 79.7085 117.272 83.0495L83.0495 117.272C83.0435 117.278 83.0369 117.284 83.0309 117.29C83.0277 117.293 83.0241 117.297 83.0214 117.299C83.0184 117.303 83.0157 117.305 83.0127 117.308C83.0085 117.313 83.0037 117.317 82.9996 117.321C82.9981 117.323 82.996 117.325 82.9945 117.326C82.9891 117.332 82.9834 117.337 82.9777 117.343C82.9774 117.343 82.9774 117.343 82.9771 117.343C82.883 117.435 82.7877 117.524 82.6902 117.611C81.9739 118.25 81.1759 118.748 80.3322 119.104C80.3292 119.105 80.3268 119.106 80.3238 119.107C80.3205 119.108 80.3178 119.11 80.3146 119.111C79.2948 119.541 78.1753 119.777 76.9998 119.777Z" fill="white"/>
</svg>
