<svg width="275" height="80" viewBox="0 0 275 80" fill="none" xmlns="http://www.w3.org/2000/svg">
<rect width="275" height="80" rx="10" fill="black"/>
<path d="M20.9447 14.3474C20.3463 14.9624 20 15.9199 20 17.1599V61.3899C20 62.6299 20.3463 63.5874 20.9447 64.2024L21.0924 64.3374L46.3363 39.5624V38.9774L21.0924 14.2024L20.9447 14.3474Z" fill="white"/>
<path d="M54.7418 47.825L46.3364 39.5625V38.9775L54.7519 30.715L54.9404 30.8225L64.9066 36.39C67.7508 37.97 67.7508 40.57 64.9066 42.16L54.9404 47.7174L54.7418 47.825V47.825Z" fill="white"/>
<path d="M54.9404 47.7175L46.3365 39.27L20.9448 64.2025C21.8895 65.1775 23.43 65.295 25.1819 64.32L54.9404 47.7175" fill="white"/>
<path d="M54.9404 30.8225L25.1819 14.22C23.43 13.255 21.8895 13.3725 20.9448 14.3475L46.3365 39.27L54.9404 30.8225Z" fill="white"/>
<path d="M96.2789 19.7575C96.2789 21.4275 95.7697 22.765 94.7665 23.7625C93.613 24.945 92.1107 25.54 90.2697 25.54C88.5102 25.54 87.0079 24.935 85.7755 23.7425C84.5405 22.5325 83.9243 21.0475 83.9243 19.27C83.9243 17.4925 84.5405 16.0075 85.7755 14.8075C87.0079 13.605 88.5102 13 90.2697 13C91.1456 13 91.9808 13.1775 92.7778 13.5075C93.5722 13.84 94.219 14.29 94.6875 14.845L93.6232 15.9C92.8058 14.9525 91.6931 14.485 90.2697 14.485C88.9864 14.485 87.8736 14.925 86.9289 15.8125C85.9945 16.7025 85.5259 17.855 85.5259 19.27C85.5259 20.685 85.9945 21.8475 86.9289 22.7375C87.8736 23.615 88.9864 24.065 90.2697 24.065C91.632 24.065 92.7778 23.615 93.6817 22.7275C94.2776 22.14 94.6162 21.33 94.7053 20.295H90.2697V18.85H96.1873C96.2586 19.1625 96.2789 19.465 96.2789 19.7575V19.7575Z" fill="white" stroke="white" stroke-width="0.16" stroke-miterlimit="10"/>
<path d="M105.667 14.7476H100.109V18.5476H105.12V19.9926H100.109V23.7926H105.667V25.2651H98.5352V13.2751H105.667V14.7476Z" fill="white" stroke="white" stroke-width="0.16" stroke-miterlimit="10"/>
<path d="M112.293 25.2651H110.719V14.7476H107.31V13.2751H115.705V14.7476H112.293V25.2651V25.2651Z" fill="white" stroke="white" stroke-width="0.16" stroke-miterlimit="10"/>
<path d="M121.78 25.2651V13.2751H123.351V25.2651H121.78Z" fill="white" stroke="white" stroke-width="0.16" stroke-miterlimit="10"/>
<path d="M130.315 25.2651H128.754V14.7476H125.332V13.2751H133.737V14.7476H130.315V25.2651Z" fill="white" stroke="white" stroke-width="0.16" stroke-miterlimit="10"/>
<path d="M149.631 23.7225C148.427 24.935 146.935 25.54 145.155 25.54C143.365 25.54 141.873 24.935 140.668 23.7225C139.467 22.5125 138.868 21.0275 138.868 19.27C138.868 17.5125 139.467 16.0275 140.668 14.8175C141.873 13.605 143.365 13 145.155 13C146.925 13 148.417 13.605 149.621 14.8275C150.833 16.0475 151.432 17.5225 151.432 19.27C151.432 21.0275 150.833 22.5125 149.631 23.7225ZM141.832 22.7175C142.739 23.615 143.841 24.065 145.155 24.065C146.459 24.065 147.571 23.615 148.468 22.7175C149.372 21.82 149.83 20.6675 149.83 19.27C149.83 17.8725 149.372 16.72 148.468 15.8225C147.571 14.925 146.459 14.475 145.155 14.475C143.841 14.475 142.739 14.925 141.832 15.8225C140.928 16.72 140.47 17.8725 140.47 19.27C140.47 20.6675 140.928 21.82 141.832 22.7175V22.7175Z" fill="white" stroke="white" stroke-width="0.16" stroke-miterlimit="10"/>
<path d="M153.639 25.2651V13.2751H155.549L161.487 22.6001H161.556L161.487 20.2951V13.2751H163.058V25.2651H161.418L155.2 15.4801H155.131L155.2 17.7951V25.2651H153.639V25.2651Z" fill="white" stroke="white" stroke-width="0.16" stroke-miterlimit="10"/>
<path d="M138.482 42.7751C133.697 42.7751 129.789 46.3501 129.789 51.2826C129.789 56.1751 133.697 59.7876 138.482 59.7876C143.276 59.7876 147.185 56.1751 147.185 51.2826C147.185 46.3501 143.276 42.7751 138.482 42.7751ZM138.482 56.4376C135.856 56.4376 133.598 54.3101 133.598 51.2826C133.598 48.2151 135.856 46.1251 138.482 46.1251C141.107 46.1251 143.376 48.2151 143.376 51.2826C143.376 54.3101 141.107 56.4376 138.482 56.4376V56.4376ZM119.514 42.7751C114.72 42.7751 110.821 46.3501 110.821 51.2826C110.821 56.1751 114.72 59.7876 119.514 59.7876C124.306 59.7876 128.207 56.1751 128.207 51.2826C128.207 46.3501 124.306 42.7751 119.514 42.7751ZM119.514 56.4376C116.886 56.4376 114.62 54.3101 114.62 51.2826C114.62 48.2151 116.886 46.1251 119.514 46.1251C122.139 46.1251 124.398 48.2151 124.398 51.2826C124.398 54.3101 122.139 56.4376 119.514 56.4376ZM96.9439 45.3826V48.9976H105.736C105.479 51.0176 104.792 52.5026 103.737 53.5376C102.454 54.7876 100.455 56.175 96.9439 56.175C91.533 56.175 87.2959 51.8876 87.2959 46.5751C87.2959 41.2626 91.533 36.9751 96.9439 36.9751C99.8696 36.9751 101.998 38.0976 103.569 39.5526L106.164 37.0051C103.967 34.9451 101.043 33.3626 96.9439 33.3626C89.524 33.3626 83.2881 39.2901 83.2881 46.5751C83.2881 53.8601 89.524 59.7876 96.9439 59.7876C100.954 59.7876 103.967 58.4976 106.335 56.0776C108.761 53.6951 109.517 50.3451 109.517 47.6401C109.517 46.8001 109.446 46.0276 109.319 45.3826H96.9439ZM189.237 48.1851C188.521 46.2826 186.314 42.7751 181.817 42.7751C177.361 42.7751 173.651 46.2226 173.651 51.2826C173.651 56.0476 177.323 59.7876 182.245 59.7876C186.225 59.7876 188.521 57.4051 189.466 56.0176L186.512 54.0851C185.527 55.5001 184.185 56.4376 182.245 56.4376C180.317 56.4376 178.935 55.5701 178.048 53.8601L189.637 49.1526L189.237 48.1851V48.1851ZM177.422 51.0176C177.323 47.7376 180.017 46.0576 181.947 46.0576C183.459 46.0576 184.743 46.8001 185.17 47.8626L177.422 51.0176V51.0176ZM168.003 59.2701H171.813V34.2701H168.003V59.2701ZM161.765 44.6701H161.638C160.782 43.6751 159.15 42.7751 157.082 42.7751C152.743 42.7751 148.776 46.5151 148.776 51.3101C148.776 56.0776 152.743 59.7876 157.082 59.7876C159.15 59.7876 160.782 58.8801 161.638 57.8551H161.765V59.0751C161.765 62.3276 159.995 64.075 157.141 64.075C154.814 64.075 153.37 62.425 152.774 61.0375L149.461 62.3951C150.416 64.65 152.945 67.425 157.141 67.425C161.607 67.425 165.376 64.845 165.376 58.5676V43.2926H161.765V44.6701V44.6701ZM157.408 56.4376C154.783 56.4376 152.586 54.2801 152.586 51.3101C152.586 48.3126 154.783 46.1251 157.408 46.1251C159.995 46.1251 162.035 48.3126 162.035 51.3101C162.035 54.2801 159.995 56.4376 157.408 56.4376V56.4376ZM207.071 34.2701H197.96V59.2701H201.76V49.7976H207.071C211.29 49.7976 215.428 46.8001 215.428 42.0326C215.428 37.2676 211.28 34.2701 207.071 34.2701V34.2701ZM207.17 46.3201H201.76V37.7476H207.17C210.007 37.7476 211.626 40.0601 211.626 42.0326C211.626 43.9676 210.007 46.3201 207.17 46.3201ZM230.655 42.7276C227.91 42.7276 225.056 43.9176 223.882 46.5551L227.253 47.9426C227.979 46.5551 229.313 46.1051 230.724 46.1051C232.695 46.1051 234.693 47.2676 234.724 49.3201V49.5826C234.036 49.1926 232.565 48.6151 230.754 48.6151C227.123 48.6151 223.423 50.5776 223.423 54.2401C223.423 57.5901 226.398 59.7476 229.741 59.7476C232.297 59.7476 233.708 58.6151 234.594 57.2976H234.724V59.23H238.393V49.6401C238.393 45.2076 235.022 42.7276 230.655 42.7276ZM230.197 56.4276C228.954 56.4276 227.223 55.8226 227.223 54.3101C227.223 52.3751 229.382 51.6326 231.251 51.6326C232.924 51.6326 233.708 51.9951 234.724 52.4726C234.426 54.7876 232.397 56.4276 230.197 56.4276V56.4276ZM251.761 43.2751L247.394 54.1126H247.264L242.75 43.2751H238.653L245.436 58.4201L241.566 66.8475H245.535L255.988 43.2751H251.761V43.2751ZM217.516 59.2701H221.325V34.2701H217.516V59.2701Z" fill="white"/>
</svg>
