<svg width="67" height="68" viewBox="0 0 67 68" fill="none" xmlns="http://www.w3.org/2000/svg">
<path d="M33.5027 42.4354C35.159 42.4354 36.7781 41.9476 38.1553 41.0336C39.5325 40.1197 40.6059 38.8207 41.2397 37.3008C41.8736 35.781 42.0394 34.1086 41.7163 32.4952C41.3932 30.8817 40.5956 29.3997 39.4244 28.2365C38.2532 27.0732 36.761 26.2811 35.1365 25.9601C33.512 25.6392 31.8281 25.8039 30.2979 26.4334C28.7677 27.063 27.4597 28.1291 26.5395 29.4969C25.6193 30.8647 25.1282 32.4728 25.1282 34.1179C25.1307 36.323 26.0138 38.4372 27.5838 39.9965C29.1538 41.5558 31.2824 42.4329 33.5027 42.4354ZM33.5027 27.8797C34.7449 27.8797 35.9593 28.2455 36.9922 28.931C38.0251 29.6165 38.8301 30.5907 39.3055 31.7306C39.7809 32.8705 39.9053 34.1248 39.6629 35.3349C39.4206 36.5449 38.8224 37.6565 37.944 38.5289C37.0656 39.4013 35.9464 39.9954 34.728 40.2362C33.5097 40.4769 32.2468 40.3533 31.0991 39.8812C29.9514 39.409 28.9705 38.6094 28.2803 37.5836C27.5902 36.5577 27.2218 35.3516 27.2218 34.1179C27.2236 32.4639 27.8859 30.8783 29.0634 29.7088C30.2409 28.5393 31.8375 27.8815 33.5027 27.8797Z" fill="#CD501C"/>
<path d="M20.4114 29.989C20.3931 30.0657 20.3508 30.1347 20.2907 30.1862C20.2306 30.2377 20.1557 30.269 20.0766 30.2758H19.1249C18.8821 30.2759 18.6468 30.3597 18.4593 30.5131C18.2719 30.6665 18.144 30.8798 18.0975 31.1165C17.7015 33.0981 17.7015 35.1376 18.0975 37.1191C18.144 37.3559 18.2719 37.5692 18.4593 37.7226C18.6468 37.8759 18.8821 37.9598 19.1249 37.9598H20.0766C20.1557 37.9666 20.2306 37.998 20.2907 38.0495C20.3508 38.101 20.3931 38.17 20.4114 38.2467C20.6483 38.985 20.9482 39.7019 21.308 40.3895C21.3497 40.4569 21.369 40.5357 21.363 40.6146C21.357 40.6936 21.3262 40.7686 21.2748 40.8291L20.598 41.5012C20.4263 41.6718 20.3196 41.8963 20.2962 42.1363C20.2728 42.3764 20.3341 42.617 20.4697 42.8171C21.6044 44.4933 23.0558 45.935 24.7434 47.0622C24.9449 47.1965 25.1871 47.2572 25.4286 47.2341C25.6702 47.2109 25.8962 47.1053 26.0682 46.9353L26.746 46.2621C26.807 46.2113 26.8825 46.1809 26.9618 46.175C27.0411 46.1692 27.1203 46.1883 27.1881 46.2296C27.8804 46.587 28.6022 46.885 29.3456 47.12C29.4228 47.1383 29.4923 47.1802 29.5441 47.2399C29.596 47.2996 29.6276 47.374 29.6344 47.4526V48.3978C29.6344 48.639 29.7189 48.8727 29.8733 49.0589C30.0277 49.245 30.2425 49.3721 30.4809 49.4182C32.476 49.8115 34.5295 49.8115 36.5246 49.4182C36.7629 49.3721 36.9777 49.245 37.1321 49.0589C37.2866 48.8727 37.371 48.639 37.371 48.3978V47.4526C37.3779 47.374 37.4095 47.2996 37.4613 47.2399C37.5131 47.1802 37.5826 47.1383 37.6598 47.12C38.4033 46.885 39.1251 46.587 39.8173 46.2296C39.8852 46.1881 39.9646 46.169 40.0441 46.1751C40.1236 46.1811 40.1992 46.2119 40.26 46.2631L40.9372 46.9353C41.1092 47.1053 41.3353 47.2109 41.5768 47.234C41.8184 47.2572 42.0606 47.1964 42.2621 47.0622C43.9497 45.935 45.401 44.4933 46.5358 42.8171C46.6714 42.617 46.7327 42.3764 46.7093 42.1363C46.6859 41.8963 46.5792 41.6718 46.4075 41.5012L45.7302 40.8286C45.6789 40.7681 45.6482 40.693 45.6424 40.6142C45.6366 40.5353 45.6561 40.4567 45.698 40.3894C46.0574 39.7017 46.3572 38.9849 46.5941 38.2466C46.6124 38.1699 46.6547 38.1009 46.7148 38.0494C46.7749 37.998 46.8498 37.9666 46.9288 37.9598H47.8806C48.1234 37.9598 48.3587 37.8759 48.5462 37.7225C48.7336 37.5692 48.8615 37.3558 48.908 37.1191C49.304 35.1376 49.304 33.098 48.908 31.1165C48.8615 30.8798 48.7336 30.6664 48.5462 30.5131C48.3587 30.3597 48.1234 30.2758 47.8806 30.2758H46.9288C46.8498 30.269 46.7749 30.2376 46.7148 30.1862C46.6547 30.1347 46.6124 30.0657 46.5941 29.989C46.3574 29.2506 46.0574 28.5337 45.6975 27.8462C45.6557 27.7787 45.6365 27.6999 45.6426 27.6209C45.6486 27.542 45.6797 27.4669 45.7313 27.4065L46.408 26.7339C46.5796 26.5632 46.6861 26.3386 46.7093 26.0986C46.7325 25.8585 46.671 25.6179 46.5353 25.418C45.4007 23.7418 43.9493 22.3003 42.2616 21.1734C42.0601 21.039 41.8178 20.9782 41.5762 21.0014C41.3346 21.0246 41.1086 21.1305 40.9368 21.3008L40.2595 21.9735C40.1985 22.0243 40.123 22.0547 40.0437 22.0606C39.9643 22.0664 39.8852 22.0473 39.8173 22.006C39.1251 21.6486 38.4033 21.3507 37.6598 21.1156C37.5826 21.0973 37.5132 21.0554 37.4613 20.9957C37.4095 20.936 37.3779 20.8616 37.371 20.783V19.8378C37.371 19.5966 37.2866 19.3629 37.1322 19.1767C36.9777 18.9906 36.763 18.8635 36.5246 18.8174C34.5294 18.4255 32.4761 18.4255 30.4809 18.8174C30.2425 18.8635 30.0277 18.9906 29.8733 19.1767C29.7189 19.3629 29.6345 19.5966 29.6344 19.8378V20.783C29.6276 20.8616 29.596 20.936 29.5442 20.9957C29.4923 21.0554 29.4229 21.0973 29.3456 21.1156C28.6022 21.3507 27.8804 21.6486 27.1882 22.006C27.1202 22.0473 27.0409 22.0664 26.9615 22.0604C26.882 22.0545 26.8065 22.0239 26.7455 21.973L26.0688 21.3009C25.897 21.1305 25.6709 21.0247 25.4293 21.0014C25.1877 20.9782 24.9454 21.039 24.7439 21.1734C23.0562 22.3003 21.6048 23.7418 20.4702 25.418C20.3345 25.618 20.273 25.8586 20.2962 26.0986C20.3194 26.3387 20.4259 26.5632 20.5975 26.7339L21.2753 27.407C21.3265 27.4675 21.3572 27.5425 21.3631 27.6213C21.369 27.7002 21.3497 27.7788 21.308 27.8462C20.9481 28.5337 20.6482 29.2506 20.4114 29.989ZM22.4069 30.6185C22.6072 29.9935 22.861 29.3867 23.1655 28.8046C23.4143 28.3457 23.5088 27.8197 23.435 27.3036C23.3613 26.7875 23.1232 26.3084 22.7555 25.9363L22.707 25.8887C23.4304 24.9523 24.2743 24.1143 25.2172 23.396L25.2648 23.4427C25.6391 23.8084 26.1215 24.0454 26.6414 24.1189C27.1612 24.1923 27.6911 24.0984 28.1532 23.8509C28.7392 23.5484 29.3502 23.2964 29.9795 23.0975C30.4813 22.9471 30.9215 22.6415 31.2361 22.2251C31.5506 21.8088 31.723 21.3035 31.7281 20.783V20.7201C32.9059 20.5627 34.0997 20.5627 35.2775 20.7201V20.783C35.2826 21.3035 35.455 21.8088 35.7695 22.2251C36.0841 22.6415 36.5243 22.9471 37.0261 23.0975C37.6554 23.2964 38.2664 23.5484 38.8524 23.8509C39.3145 24.0982 39.8442 24.192 40.3639 24.1186C40.8835 24.0453 41.3659 23.8086 41.7403 23.4432L41.7884 23.396C42.7313 24.1143 43.5752 24.9523 44.2986 25.8887L44.251 25.9359C43.8831 26.3078 43.6446 26.7869 43.5707 27.3032C43.4967 27.8194 43.5911 28.3456 43.8401 28.8047C44.1446 29.3867 44.3983 29.9935 44.5986 30.6186C44.75 31.1169 45.0577 31.5541 45.4769 31.8666C45.8961 32.179 46.4048 32.3502 46.9289 32.3553H46.9923C47.1511 33.525 47.1511 34.7107 46.9923 35.8805H46.9289C46.4048 35.8855 45.8961 36.0568 45.4769 36.3692C45.0577 36.6816 44.75 37.1189 44.5986 37.6172C44.3981 38.2421 44.1443 38.8489 43.8401 39.4311C43.5912 39.89 43.4967 40.4161 43.5706 40.9322C43.6444 41.4484 43.8827 41.9275 44.2505 42.2994L44.2986 42.3471C43.5749 43.2834 42.731 44.1215 41.7883 44.8403L41.7408 44.7931C41.3664 44.4274 40.884 44.1905 40.3642 44.117C39.8443 44.0435 39.3145 44.1374 38.8523 44.3849C38.2663 44.6873 37.6553 44.9394 37.026 45.1383C36.5243 45.2886 36.084 45.5943 35.7695 46.0106C35.4549 46.4269 35.2825 46.9322 35.2774 47.4527V47.5157C34.0996 47.673 32.9059 47.673 31.728 47.5157V47.4527C31.7229 46.9322 31.5505 46.4269 31.236 46.0106C30.9214 45.5943 30.4812 45.2886 29.9794 45.1383C29.3501 44.9394 28.7391 44.6873 28.1531 44.3849C27.691 44.1378 27.1614 44.044 26.6418 44.1172C26.1222 44.1905 25.6398 44.4269 25.2652 44.792L25.2171 44.8403C24.2745 44.1215 23.4306 43.2833 22.707 42.347L22.7545 42.2998C23.1224 41.9279 23.3609 41.4488 23.4349 40.9326C23.509 40.4164 23.4147 39.8902 23.166 39.431C22.8613 38.849 22.6074 38.2421 22.4069 37.6171C22.2555 37.1188 21.9478 36.6815 21.5286 36.3691C21.1094 36.0567 20.6007 35.8855 20.0766 35.8804H20.0133C19.8545 34.7106 19.8545 33.525 20.0133 32.3552H20.0766C20.6007 32.3501 21.1094 32.1789 21.5286 31.8665C21.9478 31.5541 22.2555 31.1168 22.4069 30.6185Z" fill="#CD501C"/>
<path d="M22.9221 54.6765C23.581 54.9806 24.2603 55.2593 24.9411 55.5045L25.6547 53.549C25.0306 53.3246 24.4085 53.0697 23.8043 52.791L22.9221 54.6765Z" fill="#CD501C"/>
<path d="M19.1396 52.5143C19.7361 52.9271 20.3562 53.3185 20.9828 53.6769L22.0275 51.8747C21.453 51.5462 20.8841 51.1873 20.3377 50.8086L19.1396 52.5143Z" fill="#CD501C"/>
<path d="M15.7913 49.736C16.3039 50.2416 16.8463 50.7326 17.4049 51.196L18.7472 49.601C18.235 49.1755 17.7372 48.7247 17.2674 48.2607L15.7913 49.736Z" fill="#CD501C"/>
<path d="M12.9749 46.4281C13.394 47.0175 13.8438 47.5942 14.3115 48.143L15.9093 46.7997C15.481 46.2967 15.0685 45.7682 14.6841 45.228L12.9749 46.4281Z" fill="#CD501C"/>
<path d="M10.7754 42.687C11.0851 43.3379 11.4276 43.9831 11.7926 44.6045L13.601 43.5556C13.2662 42.9866 12.9523 42.3946 12.6676 41.7976L10.7754 42.687Z" fill="#CD501C"/>
<path d="M9.26343 38.6222C9.45459 39.3182 9.67901 40.0132 9.92996 40.6879L11.8938 39.967C11.6638 39.3492 11.4583 38.7126 11.2835 38.075L9.26343 38.6222Z" fill="#CD501C"/>
<path d="M8.48706 34.3584C8.5535 35.0757 8.65215 35.7986 8.78148 36.5068L10.8414 36.1372C10.7233 35.4879 10.6328 34.8254 10.5715 34.1675L8.48706 34.3584Z" fill="#CD501C"/>
<path d="M65.4158 7.21669L55.9944 2.01822C55.8351 1.93022 55.6554 1.88509 55.4731 1.88728C55.2908 1.88948 55.1122 1.93893 54.9551 2.03074C54.7979 2.12254 54.6676 2.25352 54.5771 2.41071C54.4866 2.56789 54.439 2.74583 54.439 2.92691V7.08569H33.5027C26.8419 7.09325 20.456 9.72462 15.7461 14.4025C11.0362 19.0804 8.38677 25.4228 8.37915 32.0383L8.37966 32.1983L10.4733 32.1769L10.4728 32.0383C10.4797 25.9741 12.9083 20.1602 17.2257 15.8721C21.5432 11.584 27.3969 9.17192 33.5027 9.16507H54.439V13.3239C54.439 13.5049 54.4867 13.6828 54.5772 13.84C54.6677 13.9972 54.798 14.1282 54.9551 14.22C55.1122 14.3118 55.2908 14.3612 55.4731 14.3634C55.6554 14.3656 55.8351 14.3205 55.9944 14.2325L65.4158 9.03407C65.5789 8.944 65.7148 8.81226 65.8094 8.65249C65.904 8.49272 65.9539 8.31074 65.9539 8.12538C65.9539 7.94002 65.904 7.75804 65.8094 7.59827C65.7148 7.4385 65.5789 7.30676 65.4158 7.21669ZM56.5327 11.5567V4.69409L62.7517 8.12538L56.5327 11.5567Z" fill="#CD501C"/>
<path d="M58.5184 33.8772C58.4519 33.1599 58.3533 32.4369 58.224 31.7288L56.1641 32.0983C56.2821 32.7476 56.3726 33.4101 56.4339 34.0681L58.5184 33.8772Z" fill="#CD501C"/>
<path d="M55.1116 28.2685C55.3416 28.8863 55.547 29.5229 55.7219 30.1606L57.7419 29.6133C57.5507 28.9173 57.3263 28.2223 57.0754 27.5476L55.1116 28.2685Z" fill="#CD501C"/>
<path d="M53.4045 24.6797C53.7393 25.2488 54.0532 25.8407 54.3379 26.4377L56.2301 25.5483C55.9204 24.8975 55.578 24.2522 55.213 23.6309L53.4045 24.6797Z" fill="#CD501C"/>
<path d="M51.0962 21.4358C51.5245 21.9389 51.937 22.4674 52.3214 23.0075L54.0306 21.8074C53.6115 21.218 53.1617 20.6413 52.694 20.0925L51.0962 21.4358Z" fill="#CD501C"/>
<path d="M48.2583 18.6344C48.7705 19.0598 49.2683 19.5106 49.7381 19.9746L51.2142 18.4993C50.7016 17.9937 50.1592 17.5028 49.6006 17.0393L48.2583 18.6344Z" fill="#CD501C"/>
<path d="M47.8659 15.7211C47.2694 15.3084 46.6494 14.917 46.0228 14.5586L44.978 16.3608C45.5526 16.6893 46.1215 17.0482 46.6679 17.4269L47.8659 15.7211Z" fill="#CD501C"/>
<path d="M44.0834 13.5589C43.4245 13.2549 42.7452 12.9762 42.0644 12.731L41.3508 14.6865C41.9749 14.9109 42.597 15.1657 43.2012 15.4444L44.0834 13.5589Z" fill="#CD501C"/>
<path d="M1.58965 61.0189L11.011 66.2174C11.1703 66.3054 11.3501 66.3505 11.5324 66.3483C11.7147 66.3461 11.8932 66.2967 12.0504 66.2049C12.2075 66.1131 12.3378 65.9821 12.4283 65.8249C12.5188 65.6677 12.5664 65.4898 12.5664 65.3087V61.1499H33.5027C40.1635 61.1424 46.5494 58.511 51.2593 53.8331C55.9693 49.1552 58.6186 42.8128 58.6263 36.1973L58.6258 36.0374L56.5321 36.0587L56.5326 36.1973C56.5257 42.2615 54.0972 48.0755 49.7797 52.3635C45.4622 56.6516 39.6085 59.0637 33.5027 59.0705H12.5664V54.9118C12.5664 54.7307 12.5188 54.5527 12.4283 54.3956C12.3378 54.2384 12.2075 54.1074 12.0504 54.0156C11.8932 53.9238 11.7147 53.8743 11.5324 53.8721C11.3501 53.8699 11.1703 53.9151 11.011 54.0031L1.58965 59.2015C1.42654 59.2916 1.29064 59.4233 1.19602 59.5831C1.10141 59.7429 1.05151 59.9249 1.05151 60.1102C1.05151 60.2956 1.10141 60.4776 1.19602 60.6373C1.29064 60.7971 1.42654 60.9289 1.58965 61.0189ZM10.4728 56.6789V63.5415L4.25372 60.1102L10.4728 56.6789Z" fill="#CD501C"/>
</svg>
