<svg width="67" height="68" viewBox="0 0 67 68" fill="none" xmlns="http://www.w3.org/2000/svg">
<g clip-path="url(#clip0_40_79)">
<path d="M56.8921 26.2447C58.7844 24.3914 59.8864 21.8596 59.8864 19.1461C59.8864 13.6427 55.4092 9.16504 49.9053 9.16504C48.0869 9.16504 46.2978 9.66487 44.7296 10.6109C44.2054 10.9277 44.0365 11.6088 44.3527 12.1336C44.6689 12.6584 45.3512 12.8257 45.8755 12.5105C47.0981 11.773 48.4909 11.3831 49.9053 11.3831C54.1853 11.3831 57.6683 14.8656 57.6683 19.1461C57.6683 21.7821 56.3482 24.2119 54.1323 25.649C52.2717 26.8696 49.9128 27.2215 47.7587 26.608C47.1761 26.4401 46.5566 26.7802 46.3876 27.3693C46.2197 27.9584 46.5609 28.572 47.1501 28.7404C48.0469 28.9971 48.9739 29.127 49.9053 29.127C51.6491 29.127 53.3347 28.6514 54.8313 27.7923C60.5244 29.8552 64.3224 35.2303 64.3224 41.3262V46.8712H54.2098C53.4243 39.4639 48.7641 32.982 41.9667 29.9041C44.1298 27.7017 45.4692 24.6877 45.4692 21.3642C45.4693 14.6375 39.9968 9.16504 33.2702 9.16504C26.5436 9.16504 21.0711 14.6375 21.0711 21.3642C21.0711 24.6887 22.4113 27.7037 24.5755 29.9063C22.2879 30.9456 20.1663 32.3996 18.3668 34.1888C14.9173 37.6482 12.8181 42.0884 12.3199 46.8715H2.21806V41.3264C2.21806 37.486 3.71808 33.865 6.43753 31.1342C7.93455 29.6466 9.75714 28.5118 11.7196 27.7986C13.2163 28.6541 14.8969 29.1272 16.6351 29.1272C17.5665 29.1272 18.4936 28.9972 19.3903 28.7405C19.9794 28.5721 20.3206 27.9585 20.1528 27.3694C19.9838 26.7803 19.3643 26.4407 18.7817 26.6081C16.6286 27.2227 14.271 26.8713 12.4028 25.6464C10.1924 24.2119 8.8721 21.7822 8.8721 19.1461C8.8721 14.8656 12.3551 11.3831 16.6351 11.3831C18.0495 11.3831 19.4423 11.773 20.665 12.5105C21.1913 12.8257 21.8704 12.6567 22.1877 12.1336C22.5039 11.609 22.335 10.9277 21.8108 10.6109C20.2426 9.66487 18.4535 9.16504 16.6351 9.16504C11.1312 9.16504 6.65404 13.6427 6.65404 19.1461C6.65404 21.8575 7.75417 24.3873 9.64108 26.239C7.88231 27.0566 6.25792 28.1853 4.86928 29.5647C1.72953 32.7184 0 36.8951 0 41.3263V47.9803C0 48.5928 0.496064 49.0893 1.10896 49.0893H12.199V57.9614C12.199 58.5739 12.6951 59.0703 13.308 59.0703H53.2322C53.8452 59.0703 54.3412 58.5738 54.3412 57.9614V49.0893H65.4312C66.0442 49.0893 66.5402 48.5927 66.5402 47.9803V41.3263C66.5404 34.7691 62.7297 28.9359 56.8921 26.2447ZM23.2891 21.3642C23.2891 15.8608 27.7663 11.3831 33.2702 11.3831C38.7741 11.3831 43.2513 15.8608 43.2513 21.3642C43.2513 26.8675 38.7741 31.3452 33.2702 31.3452C27.7663 31.3452 23.2891 26.8674 23.2891 21.3642ZM52.1234 56.8523H14.417V49.0893C14.417 44.0608 16.3773 39.3254 19.9339 35.7579C21.8076 33.8943 24.0791 32.4487 26.5144 31.5135C28.4502 32.8063 30.7729 33.5631 33.2702 33.5631C35.7717 33.5631 38.0984 32.804 40.036 31.5074C47.285 34.2926 52.1234 41.2812 52.1234 49.0893V56.8523Z" fill="#CD501C"/>
</g>
<defs>
<clipPath id="clip0_40_79">
<rect width="66.5404" height="66.5404" fill="white" transform="translate(0 0.847656)"/>
</clipPath>
</defs>
</svg>
