<svg width="67" height="68" viewBox="0 0 67 68" fill="none" xmlns="http://www.w3.org/2000/svg">
<g clip-path="url(#clip0_40_35)">
<path d="M56.9074 4.493C50.7007 1.99035 42.4695 0.612061 33.7299 0.612061C24.9902 0.612061 16.759 1.99035 10.5523 4.493C4.06495 7.10895 0.492188 10.6971 0.492188 14.5966V54.664C0.492188 57.8696 2.82468 60.8633 7.23729 63.3216L8.68778 64.1296V47.4508C12.5159 45.5092 17.8428 44.0257 23.7773 43.2562L23.5265 41.3211C21.7625 41.5498 20.065 41.8354 18.4444 42.1732V39.8008C20.6684 39.3476 22.3471 37.3766 22.3471 35.0207V27.2153C22.3471 24.5254 20.1588 22.337 17.4688 22.337C15.0373 22.337 13.0161 24.1252 12.65 26.4554C12.3521 26.399 12.0489 26.3698 11.7449 26.3698C10.5881 26.3698 9.5249 26.7753 8.68778 27.4504V21.6946L8.18161 21.4168C5.56396 19.9794 2.44352 17.6296 2.44352 14.5966C2.44352 11.5908 5.66504 8.56777 11.282 6.30279C17.2623 3.89134 25.2344 2.56339 33.7299 2.56339C42.2253 2.56339 50.1974 3.89134 56.1777 6.30279C58.4197 7.20678 60.2785 8.23175 61.7047 9.32801H50.3162V23.6378H46.0233V41.6239C45.3374 41.5142 44.6409 41.4127 43.9333 41.321L43.6824 43.2561C49.617 44.0256 54.944 45.5091 58.772 47.4507V64.1295L60.2225 63.3215C64.6351 60.8633 66.9676 57.8695 66.9676 54.6638V14.5965C66.9676 10.6971 63.3948 7.10895 56.9074 4.493ZM14.5418 27.2152C14.5418 25.6012 15.8549 24.2882 17.4688 24.2882C19.0827 24.2882 20.3958 25.6012 20.3958 27.2152V35.0205C20.3958 36.6346 19.0827 37.9475 17.4688 37.9475C15.8549 37.9475 14.5418 36.6346 14.5418 35.0205V27.2152ZM15.55 39.5051C15.8502 39.634 16.1657 39.7341 16.4931 39.8008V42.6146C15.1735 42.9376 13.9138 43.2978 12.7205 43.6929V41.2315C13.8389 41.0055 14.8376 40.3966 15.55 39.5051ZM8.81787 31.248C8.81787 29.634 10.131 28.321 11.7449 28.321C12.036 28.321 12.3187 28.3633 12.5904 28.4455V35.0205C12.5904 36.324 13.1053 37.5088 13.9412 38.3848C13.3934 39.0095 12.6019 39.3785 11.7449 39.3785C10.131 39.3785 8.81787 38.0655 8.81787 36.4515V31.248ZM8.68778 40.2492C9.28307 40.7294 9.99257 41.0733 10.7692 41.2316V44.3931C10.0447 44.6747 9.35045 44.9706 8.68778 45.2801V40.2492ZM6.73645 22.8416V60.7342C4.5386 59.2684 2.44352 57.2047 2.44352 54.6638V19.4194C3.47799 20.6374 4.91573 21.7866 6.73645 22.8416ZM58.772 45.2803C55.7668 43.8763 52.1057 42.7534 47.9746 41.9653V25.5891H58.772V45.2803ZM65.0162 54.664C65.0162 57.2048 62.9211 59.2686 60.7233 60.7343V22.8416C62.544 21.7865 63.9818 20.6373 65.0162 19.4193V54.664ZM59.2781 21.4166L58.772 21.6945V23.6378H52.2675V11.2793H63.7239C64.5708 12.361 65.0162 13.4799 65.0162 14.5966C65.0162 17.6296 61.8958 19.9794 59.2781 21.4166Z" fill="#CD501C"/>
<path d="M46.0734 51.2718L38.7383 49.7112V45.9996C41.0163 44.4116 42.5109 41.7743 42.5109 38.7931V33.3293C42.5109 28.4874 38.5718 24.5483 33.7299 24.5483C28.888 24.5483 24.9489 28.4874 24.9489 33.3293V38.7931C24.9489 41.7743 26.4435 44.4116 28.7215 45.9996V49.7112L21.3865 51.2718C18.551 51.875 16.4932 54.417 16.4932 57.3158V67.1524H18.4445V57.3158C18.4445 55.3323 19.8526 53.5933 21.7925 53.1805L29.7998 51.4767H37.66L45.6674 53.1805C47.6073 53.5933 49.0154 55.3324 49.0154 57.3158V67.1524H50.9667V57.3158C50.9667 54.417 48.9088 51.875 46.0734 51.2718ZM26.9003 33.3293C26.9003 29.5634 29.9641 26.4997 33.7299 26.4997C37.4957 26.4997 40.5596 29.5634 40.5596 33.3293V34.1099C40.5596 37.8758 37.4957 40.9395 33.7299 40.9395C29.9641 40.9395 26.9003 37.8758 26.9003 34.1099V33.3293ZM36.787 49.5254H30.6728V47.0242C31.6254 47.3792 32.6553 47.5741 33.7299 47.5741C34.8046 47.5741 35.8345 47.3791 36.787 47.0242V49.5254ZM33.7299 45.6227C30.2713 45.6227 27.4067 43.0377 26.9622 39.6986C28.574 41.6471 31.0094 42.8909 33.7299 42.8909C36.4505 42.8909 38.8859 41.6471 40.4977 39.6986C40.0532 43.0377 37.1886 45.6227 33.7299 45.6227Z" fill="#CD501C"/>
<path d="M22.9976 59.3472H24.9489V67.1525H22.9976V59.3472Z" fill="#CD501C"/>
<path d="M42.5107 59.3472H44.4621V67.1525H42.5107V59.3472Z" fill="#CD501C"/>
<path d="M27.8108 13.9462C27.8108 11.2562 25.6224 9.06787 22.9324 9.06787C21.6098 9.06787 20.3524 9.60761 19.4411 10.5407C19.0549 10.4273 18.6524 10.3688 18.2492 10.3688C17.5871 10.3688 16.9456 10.5207 16.363 10.8125C15.7803 10.5207 15.1388 10.3688 14.4767 10.3688C12.1453 10.3688 10.2488 12.2655 10.2488 14.5966C10.2488 16.9278 12.1453 18.8245 14.4767 18.8245H22.9324C25.6224 18.8245 27.8108 16.6362 27.8108 13.9462ZM22.9324 16.8732H14.4767C13.2214 16.8732 12.2001 15.8519 12.2001 14.5966C12.2001 13.3414 13.2214 12.3201 14.4767 12.3201C14.9528 12.3201 15.4091 12.4662 15.7963 12.7424L16.363 13.1468L16.9296 12.7424C17.3168 12.4662 17.7731 12.3201 18.2492 12.3201C18.6156 12.3201 18.966 12.405 19.2907 12.5725L20.0469 12.9627L20.5362 12.2665C21.0852 11.4854 21.981 11.0192 22.9324 11.0192C24.5463 11.0192 25.8594 12.3322 25.8594 13.9462C25.8594 15.5602 24.5463 16.8732 22.9324 16.8732Z" fill="#CD501C"/>
<path d="M35.356 12.9054C35.356 15.2366 37.2525 17.1333 39.5838 17.1333C41.9152 17.1333 43.8117 15.2366 43.8117 12.9054C43.8117 10.5742 41.9152 8.67749 39.5838 8.67749C37.2525 8.67749 35.356 10.5742 35.356 12.9054ZM39.5838 10.6288C40.8391 10.6288 41.8604 11.6501 41.8604 12.9054C41.8604 14.1606 40.8391 15.1819 39.5838 15.1819C38.3286 15.1819 37.3073 14.1606 37.3073 12.9054C37.3073 11.6501 38.3286 10.6288 39.5838 10.6288Z" fill="#CD501C"/>
<path d="M50.6414 28.321H52.5927V30.2724H50.6414V28.321Z" fill="#CD501C"/>
<path d="M54.5439 28.321H56.4953V30.2724H54.5439V28.321Z" fill="#CD501C"/>
<path d="M50.6414 33.5244H52.5927V35.4757H50.6414V33.5244Z" fill="#CD501C"/>
<path d="M54.5439 33.5244H56.4953V35.4757H54.5439V33.5244Z" fill="#CD501C"/>
<path d="M54.8042 13.8811H56.7555V15.8324H54.8042V13.8811Z" fill="#CD501C"/>
<path d="M58.7068 13.8811H60.6581V15.8324H58.7068V13.8811Z" fill="#CD501C"/>
<path d="M54.8042 19.0845H56.7555V21.0358H54.8042V19.0845Z" fill="#CD501C"/>
<path d="M54.5439 38.728H56.4953V40.6794H54.5439V38.728Z" fill="#CD501C"/>
<path d="M50.6414 38.728H52.5927V40.6794H50.6414V38.728Z" fill="#CD501C"/>
<path d="M38.6082 4.7749H40.5595V6.72623H38.6082V4.7749Z" fill="#CD501C"/>
<path d="M38.6082 19.0845H40.5595V21.0358H38.6082V19.0845Z" fill="#CD501C"/>
<path d="M33.1414 7.85034L34.521 6.47075L35.9005 7.85034L34.5209 9.22993L33.1414 7.85034Z" fill="#CD501C"/>
<path d="M43.2578 17.9695L44.6374 16.5899L46.017 17.9695L44.6374 19.3491L43.2578 17.9695Z" fill="#CD501C"/>
<path d="M31.4534 11.9297H33.4047V13.881H31.4534V11.9297Z" fill="#CD501C"/>
<path d="M45.7629 11.9297H47.7143V13.881H45.7629V11.9297Z" fill="#CD501C"/>
<path d="M33.1392 17.9656L34.5188 16.586L35.8983 17.9656L34.5188 19.3452L33.1392 17.9656Z" fill="#CD501C"/>
<path d="M43.2573 7.84937L44.6369 6.46977L46.0165 7.84937L44.6369 9.22896L43.2573 7.84937Z" fill="#CD501C"/>
</g>
<defs>
<clipPath id="clip0_40_35">
<rect width="66.5404" height="66.5404" fill="white" transform="translate(0.459473 0.612061)"/>
</clipPath>
</defs>
</svg>
