<svg width="67" height="68" viewBox="0 0 67 68" fill="none" xmlns="http://www.w3.org/2000/svg">
<path fill-rule="evenodd" clip-rule="evenodd" d="M29.2396 53.3197V45.1582C29.2396 44.579 28.7683 44.1077 28.189 44.1077C27.609 44.1077 27.1383 44.579 27.1383 45.1582V53.3197C27.1383 53.8997 27.609 54.3702 28.189 54.3702C28.7681 54.3704 29.2396 53.8997 29.2396 53.3197ZM21.5559 45.1584V53.3198C21.5559 53.8998 22.0266 54.3704 22.6065 54.3704C23.1864 54.3704 23.6571 53.8997 23.6571 53.3198V45.1584C23.6571 44.5791 23.1864 44.1078 22.6065 44.1078C22.0266 44.1077 21.5559 44.579 21.5559 45.1584Z" fill="#CD501C"/>
<path fill-rule="evenodd" clip-rule="evenodd" d="M18.5257 54.3705H32.2687C32.8488 54.3705 33.3193 53.8998 33.3193 53.3199C33.3193 52.7399 32.8486 52.2693 32.2687 52.2693H18.5257C17.9458 52.2693 17.4751 52.74 17.4751 53.3199C17.475 53.8998 17.9457 54.3705 18.5257 54.3705Z" fill="#CD501C"/>
<path fill-rule="evenodd" clip-rule="evenodd" d="M43.2894 44.1077H3.2825C2.6892 44.1077 2.20808 43.6272 2.20808 43.0339V10.8627C2.20808 10.2694 2.68931 9.78891 3.2825 9.78891H13.6229C14.2028 9.78891 14.6735 9.31822 14.6735 8.73833C14.6735 8.15843 14.2028 7.68774 13.6229 7.68774C13.6229 7.68774 6.84132 7.68774 3.2825 7.68774C1.52864 7.68763 0.106689 9.10881 0.106689 10.8627V43.0339C0.106689 44.7878 1.52853 46.2089 3.28239 46.2089H43.2893C43.8693 46.2089 44.3398 45.7383 44.3398 45.1584C44.34 44.579 43.8693 44.1077 43.2894 44.1077ZM48.5867 23.4508V33.0824C48.5867 33.6616 49.0574 34.133 49.6373 34.133C50.2173 34.133 50.6878 33.6616 50.6878 33.0824V23.4508C50.6878 22.8708 50.2172 22.4002 49.6373 22.4002C49.0574 22.4001 48.5867 22.8708 48.5867 23.4508Z" fill="#CD501C"/>
<path fill-rule="evenodd" clip-rule="evenodd" d="M43.0946 35.6655H1.15727C0.577265 35.6655 0.106689 36.1356 0.106689 36.7161V43.034C0.106689 43.8759 0.441465 44.6835 1.03685 45.2795C1.63224 45.8749 2.43979 46.209 3.28239 46.209H43.2893C43.8693 46.209 44.3398 45.7384 44.3398 45.1585C44.3398 44.5792 43.8692 44.1079 43.2893 44.1079H3.28239C2.99728 44.1079 2.72414 43.9952 2.52242 43.7934C2.32135 43.5924 2.20797 43.3192 2.20797 43.0342V37.767H43.0946C43.6746 37.767 44.1452 37.2963 44.1452 36.7164C44.1452 36.1365 43.6745 35.6655 43.0946 35.6655Z" fill="#CD501C"/>
<path fill-rule="evenodd" clip-rule="evenodd" d="M49.6373 32.0317C44.8037 32.0317 40.8799 35.9555 40.8799 40.7892C40.8799 45.6228 44.8037 49.5467 49.6373 49.5467C54.471 49.5467 58.3955 45.6228 58.3955 40.7892C58.3955 35.9555 54.4709 32.0317 49.6373 32.0317ZM49.6373 34.133C53.3111 34.133 56.2942 37.1155 56.2942 40.7892C56.2942 44.4629 53.3111 47.4454 49.6373 47.4454C45.9636 47.4454 42.9812 44.4629 42.9812 40.7892C42.9812 37.1155 45.9636 34.133 49.6373 34.133Z" fill="#CD501C"/>
<path fill-rule="evenodd" clip-rule="evenodd" d="M35.9909 67.1525C42.3325 67.1525 56.9455 67.1525 63.2878 67.1315C64.3686 67.1315 65.3764 66.5739 65.9543 65.6563C66.5315 64.738 66.5966 63.588 66.1266 62.6108C66.126 62.6094 66.126 62.6088 66.1252 62.6073C63.1582 56.4898 56.8866 52.269 49.6372 52.269C42.3892 52.269 36.119 56.4884 33.1317 62.5947C33.1303 62.5968 33.1296 62.5989 33.1282 62.6009C32.6554 63.5851 32.7212 64.7435 33.3025 65.6674C33.884 66.5921 34.899 67.1525 35.9909 67.1525ZM35.9909 65.0512C35.9909 65.0512 35.9909 65.0512 35.9902 65.0512C35.621 65.0512 35.2779 64.8613 35.081 64.549C34.8849 64.2373 34.8625 63.8464 35.0215 63.5138C37.6677 58.1079 43.2192 54.3704 49.6372 54.3704C56.0546 54.3704 61.6061 58.1072 64.2334 63.5222C64.3897 63.8479 64.3679 64.2318 64.1753 64.5379C63.9827 64.844 63.6458 65.0303 63.2844 65.0303C63.2829 65.0303 63.2816 65.0303 63.2809 65.0303C56.9407 65.0512 42.3312 65.0512 35.9909 65.0512Z" fill="#CD501C"/>
<path fill-rule="evenodd" clip-rule="evenodd" d="M27.681 12.3898V3.7871C27.681 3.1938 28.1622 2.71334 28.7554 2.71334H52.109C52.3933 2.71334 52.6665 2.82683 52.8683 3.02779C53.07 3.22951 53.1828 3.50265 53.1828 3.7871V17.486C53.1828 17.7703 53.07 18.0435 52.8683 18.2453C52.6666 18.4464 52.3934 18.5598 52.109 18.5598H36.6184C36.0392 18.5598 35.5678 19.0304 35.5678 19.6103C35.5678 20.1902 36.0392 20.6609 36.6184 20.6609H52.109C52.9509 20.6609 53.7585 20.3262 54.3539 19.7308C54.9493 19.1354 55.284 18.3278 55.284 17.4859C55.284 14.0321 55.284 7.24078 55.284 3.78699C55.284 2.94505 54.9493 2.1375 54.3539 1.54212C53.7586 0.946836 52.951 0.612061 52.1091 0.612061C46.9666 0.612061 33.8974 0.612061 28.7555 0.612061C27.0017 0.612061 25.5798 2.0339 25.5798 3.7871V12.3898C25.5798 12.9697 26.0512 13.4403 26.6304 13.4403C27.2103 13.4403 27.681 12.9697 27.681 12.3898Z" fill="#CD501C"/>
<path fill-rule="evenodd" clip-rule="evenodd" d="M47.2167 5.50098H38.1875C37.6075 5.50098 37.137 5.97166 37.137 6.55156C37.137 7.13146 37.6077 7.60214 38.1875 7.60214H47.2167C47.796 7.60214 48.2673 7.13146 48.2673 6.55156C48.2673 5.97166 47.796 5.50098 47.2167 5.50098Z" fill="#CD501C"/>
<path fill-rule="evenodd" clip-rule="evenodd" d="M47.2165 9.58569H39.9236C39.3436 9.58569 38.873 10.0564 38.873 10.6363C38.873 11.2162 39.3437 11.6869 39.9236 11.6869H47.2164C47.7956 11.6869 48.267 11.2162 48.267 10.6363C48.2671 10.0564 47.7958 9.58569 47.2165 9.58569Z" fill="#CD501C"/>
<path fill-rule="evenodd" clip-rule="evenodd" d="M47.2167 13.6707H41.9424C41.3624 13.6707 40.8918 14.1413 40.8918 14.7212C40.8918 15.3012 41.3625 15.7718 41.9424 15.7718H47.2167C47.7959 15.7718 48.2672 15.3011 48.2672 14.7212C48.2672 14.1413 47.7959 13.6707 47.2167 13.6707Z" fill="#CD501C"/>
<path fill-rule="evenodd" clip-rule="evenodd" d="M18.0761 3.91724C15.0047 3.91724 12.5112 6.41075 12.5112 9.48208C12.5112 12.5534 15.0047 15.0477 18.0761 15.0477C21.1482 15.0477 23.6417 12.5535 23.6417 9.48208C23.6417 6.41064 21.1482 3.91724 18.0761 3.91724ZM18.0761 6.01851C19.9883 6.01851 21.5404 7.57066 21.5404 9.48208C21.5404 11.3943 19.9883 12.9464 18.0761 12.9464C16.1647 12.9464 14.6125 11.3943 14.6125 9.48208C14.6125 7.57066 16.1647 6.01851 18.0761 6.01851Z" fill="#CD501C"/>
<path fill-rule="evenodd" clip-rule="evenodd" d="M25.9973 16.8738H14.8669C11.8439 16.8738 9.26283 19.0549 8.75853 22.0359C8.34739 24.4699 7.85572 27.3774 7.5538 29.1593C7.43338 29.8751 7.63367 30.6085 8.10227 31.1626C8.57087 31.7173 9.26075 32.0374 9.98644 32.0374H21.5091C22.8714 32.0374 23.9761 30.9328 23.9761 29.5704V23.8676H26.6131C28.0224 23.8676 29.3776 23.3226 30.3947 22.347C31.2401 21.5352 32.3608 20.4607 33.291 19.5684C33.9599 18.9261 34.3465 18.0449 34.3662 17.1176C34.3851 16.2001 34.0426 15.3119 33.413 14.6451C33.4067 14.638 33.38 14.61 33.3731 14.6037C32.7329 13.9467 31.8601 13.5678 30.9426 13.5489C30.0152 13.5293 29.1188 13.8795 28.4491 14.5211L25.9973 16.8738ZM26.4197 18.9751C26.6907 18.9751 26.9514 18.87 27.1467 18.6823C27.1467 18.6823 28.6351 17.2548 29.9036 16.0374C30.1704 15.7818 30.5283 15.6417 30.8989 15.6494C31.2645 15.6571 31.6134 15.8084 31.8683 16.0703C31.8711 16.073 31.8823 16.0844 31.8851 16.0871C32.1358 16.3533 32.2724 16.7077 32.2647 17.074C32.257 17.4438 32.1029 17.7954 31.8361 18.0518C30.9059 18.9442 29.7859 20.0186 28.9398 20.8304C28.3136 21.4307 27.4802 21.7662 26.6129 21.7662H22.9252C22.3454 21.7662 21.8747 22.2362 21.8747 22.8168V29.5703C21.8747 29.772 21.7107 29.936 21.509 29.936H9.98633C9.87921 29.936 9.77692 29.8883 9.70682 29.8064C9.63749 29.7245 9.60805 29.6153 9.62552 29.5095C9.92744 27.7276 10.4191 24.8201 10.8302 22.3861C11.1637 20.4166 12.8692 18.9751 14.8668 18.9751H26.4197Z" fill="#CD501C"/>
<path fill-rule="evenodd" clip-rule="evenodd" d="M14.04 31.1617L15.1551 24.5686C15.2518 23.9963 14.8658 23.4541 14.2943 23.3576C13.7227 23.2602 13.1799 23.6461 13.0833 24.2177L11.9682 30.8115C11.8715 31.3831 12.2575 31.9259 12.829 32.0225C13.4006 32.1192 13.9435 31.7339 14.04 31.1617Z" fill="#CD501C"/>
<path fill-rule="evenodd" clip-rule="evenodd" d="M33.7376 15.8435L35.9377 9.84436C36.1373 9.2994 35.8572 8.69567 35.313 8.49603C34.768 8.2964 34.1643 8.57657 33.9646 9.12086L31.7646 15.12C31.565 15.665 31.8451 16.2687 32.3893 16.4684C32.9343 16.6679 33.538 16.3877 33.7376 15.8435Z" fill="#CD501C"/>
<path fill-rule="evenodd" clip-rule="evenodd" d="M23.9415 41.9881H26.8531C27.433 41.9881 27.9037 41.5174 27.9037 40.9375C27.9037 40.3575 27.433 39.887 26.8531 39.887H23.9415C23.3616 39.887 22.8909 40.3577 22.8909 40.9375C22.8909 41.5174 23.3616 41.9881 23.9415 41.9881Z" fill="#CD501C"/>
</svg>
